{"asset":{"version":"2.0","generator":"Blockbench 4.11.2 glTF exporter"},"scenes":[{"nodes":[3],"name":"blockbench_export"}],"scene":0,"nodes":[{"translation":[0,0.125,0],"name":"cuboid","mesh":0},{"rotation":[-0.9063077870366499,0,0,0.42261826174069944],"translation":[0,0.7500000000000002,-0.44375],"name":"cuboid","mesh":1},{"rotation":[0.8191520442889917,0,0,0.5735764363510462],"translation":[0,0.7500000000000002,0.428125],"name":"cuboid","mesh":2},{"children":[0,1,2]}],"bufferViews":[{"buffer":0,"byteOffset":0,"byteLength":23712,"target":34962,"byteStride":12},{"buffer":0,"byteOffset":23712,"byteLength":23712,"target":34962,"byteStride":12},{"buffer":0,"byteOffset":47424,"byteLength":15808,"target":34962,"byteStride":8},{"buffer":0,"byteOffset":63232,"byteLength":5928,"target":34963},{"buffer":0,"byteOffset":69160,"byteLength":288,"target":34962,"byteStride":12},{"buffer":0,"byteOffset":69448,"byteLength":288,"target":34962,"byteStride":12},{"buffer":0,"byteOffset":69736,"byteLength":192,"target":34962,"byteStride":8},{"buffer":0,"byteOffset":69928,"byteLength":72,"target":34963},{"buffer":0,"byteOffset":70000,"byteLength":288,"target":34962,"byteStride":12},{"buffer":0,"byteOffset":70288,"byteLength":288,"target":34962,"byteStride":12},{"buffer":0,"byteOffset":70576,"byteLength":192,"target":34962,"byteStride":8},{"buffer":0,"byteOffset":70768,"byteLength":72,"target":34963}],"buffers":[{"byteLength":70840,"uri":"data:application/octet-stream;base64,"}],"accessors":[{"bufferView":0,"componentType":5126,"count":1976,"max":[0.5,0.625,0.4375],"min":[-0.5,-0.125,-0.4375],"type":"VEC3"},{"bufferView":1,"componentType":5126,"count":1976,"max":[1,1,1],"min":[-1,-1,-1],"type":"VEC3"},{"bufferView":2,"componentType":5126,"count":1976,"max":[0.37447890639305115,0.3828125],"min":[0,0],"type":"VEC2"},{"bufferView":3,"componentType":5123,"count":2964,"max":[1975],"min":[0],"type":"SCALAR"},{"bufferView":4,"componentType":5126,"count":24,"max":[0.5,0.0062500000931322575,0.453125],"min":[-0.5,-0.0062500000931322575,-0.0031250000465661287],"type":"VEC3"},{"bufferView":5,"componentType":5126,"count":24,"max":[1,1,1],"min":[-1,-1,-1],"type":"VEC3"},{"bufferView":6,"componentType":5126,"count":24,"max":[0.5078125,0.421875],"min":[0.0234375,0.03125],"type":"VEC2"},{"bufferView":7,"componentType":5123,"count":36,"max":[23],"min":[0],"type":"SCALAR"},{"bufferView":8,"componentType":5126,"count":24,"max":[0.5,0.0062500000931322575,0.012500000186264515],"min":[-0.5,-0.0062500000931322575,-0.41874998807907104],"type":"VEC3"},{"bufferView":9,"componentType":5126,"count":24,"max":[1,1,1],"min":[-1,-1,-1],"type":"VEC3"},{"bufferView":10,"componentType":5126,"count":24,"max":[0.5078125,0.359375],"min":[0.0234375,0],"type":"VEC2"},{"bufferView":11,"componentType":5123,"count":36,"max":[23],"min":[0],"type":"SCALAR"}],"materials":[{"pbrMetallicRoughness":{"metallicFactor":0,"roughnessFactor":1,"baseColorTexture":{"index":0}},"alphaMode":"MASK","alphaCutoff":0.05,"doubleSided":true}],"textures":[{"sampler":0,"source":0,"name":"texture"}],"samplers":[{"magFilter":9728,"minFilter":9728,"wrapS":33071,"wrapT":33071}],"images":[{"mimeType":"image/png","uri":"data:image/png;base64,"}],"meshes":[{"primitives":[{"mode":4,"attributes":{"POSITION":0,"NORMAL":1,"TEXCOORD_0":2},"indices":3,"material":0}]},{"primitives":[{"mode":4,"attributes":{"POSITION":4,"NORMAL":5,"TEXCOORD_0":6},"indices":7,"material":0}]},{"primitives":[{"mode":4,"attributes":{"POSITION":8,"NORMAL":9,"TEXCOORD_0":10},"indices":11,"material":0}]}]}