{"asset":{"version":"2.0","generator":"Blockbench 4.11.2 glTF exporter"},"scenes":[{"nodes":[1],"name":"blockbench_export"}],"scene":0,"nodes":[{"rotation":[0,0.3826834323650898,0,0.9238795325112867],"translation":[-0.1875,-0.1875,0],"name":"Chair","mesh":0},{"children":[0]}],"bufferViews":[{"buffer":0,"byteOffset":0,"byteLength":25488,"target":34962,"byteStride":12},{"buffer":0,"byteOffset":25488,"byteLength":25488,"target":34962,"byteStride":12},{"buffer":0,"byteOffset":50976,"byteLength":16992,"target":34962,"byteStride":8},{"buffer":0,"byteOffset":67968,"byteLength":4032,"target":34963},{"buffer":0,"byteOffset":72000,"byteLength":600,"target":34963},{"buffer":0,"byteOffset":72600,"byteLength":288,"target":34963},{"buffer":0,"byteOffset":72888,"byteLength":288,"target":34963}],"buffers":[{"byteLength":73176,"uri":"data:application/octet-stream;base64,"}],"accessors":[{"bufferView":0,"componentType":5126,"count":2124,"max":[0.3564358055591583,1.012600302696228,0.38035255670547485],"min":[-0.11518750339746475,0.1875,-0.08616747707128525],"type":"VEC3"},{"bufferView":1,"componentType":5126,"count":2124,"max":[1,1,1],"min":[-1,-1,-1],"type":"VEC3"},{"bufferView":2,"componentType":5126,"count":2124,"max":[0.7438312768936157,0.65625],"min":[0,0],"type":"VEC2"},{"bufferView":3,"componentType":5123,"count":2016,"max":[1655],"min":[0],"type":"SCALAR"},{"bufferView":4,"componentType":5123,"count":300,"max":[1883],"min":[1656],"type":"SCALAR"},{"bufferView":5,"componentType":5123,"count":144,"max":[2003],"min":[1884],"type":"SCALAR"},{"bufferView":6,"componentType":5123,"count":144,"max":[2123],"min":[2004],"type":"SCALAR"}],"materials":[{"pbrMetallicRoughness":{"metallicFactor":0,"roughnessFactor":1,"baseColorTexture":{"index":0}},"alphaMode":"MASK","alphaCutoff":0.05,"doubleSided":true},{"pbrMetallicRoughness":{"metallicFactor":0,"roughnessFactor":1,"baseColorTexture":{"index":1}},"alphaMode":"MASK","alphaCutoff":0.05,"doubleSided":true},{"pbrMetallicRoughness":{"metallicFactor":0,"roughnessFactor":1,"baseColorTexture":{"index":2}},"alphaMode":"MASK","alphaCutoff":0.05,"doubleSided":true},{"pbrMetallicRoughness":{"metallicFactor":0,"roughnessFactor":1,"baseColorTexture":{"index":3}},"alphaMode":"MASK","alphaCutoff":0.05,"doubleSided":true}],"textures":[{"sampler":0,"source":0,"name":"texture"},{"sampler":1,"source":1,"name":"texture"},{"sampler":2,"source":2,"name":"texture"},{"sampler":3,"source":3,"name":"texture"}],"samplers":[{"magFilter":9728,"minFilter":9728,"wrapS":33071,"wrapT":33071},{"magFilter":9728,"minFilter":9728,"wrapS":33071,"wrapT":33071},{"magFilter":9728,"minFilter":9728,"wrapS":33071,"wrapT":33071},{"magFilter":9728,"minFilter":9728,"wrapS":33071,"wrapT":33071}],"images":[{"mimeType":"image/png","uri":"data:image/png;base64,"},{"mimeType":"image/png","uri":"data:image/png;base64,"},{"mimeType":"image/png","uri":"data:image/png;base64,"},{"mimeType":"image/png","uri":"data:image/png;base64,"}],"meshes":[{"primitives":[{"mode":4,"attributes":{"POSITION":0,"NORMAL":1,"TEXCOORD_0":2},"indices":3,"material":0},{"mode":4,"attributes":{"POSITION":0,"NORMAL":1,"TEXCOORD_0":2},"indices":4,"material":1},{"mode":4,"attributes":{"POSITION":0,"NORMAL":1,"TEXCOORD_0":2},"indices":5,"material":2},{"mode":4,"attributes":{"POSITION":0,"NORMAL":1,"TEXCOORD_0":2},"indices":6,"material":3}]}]}