{"asset":{"version":"2.0","generator":"Blockbench 4.11.2 glTF exporter"},"scenes":[{"nodes":[7],"name":"blockbench_export"}],"scene":0,"nodes":[{"rotation":[0.03489949670250097,0,0,0.9993908270190958],"translation":[0,0.484375,-0.03125],"name":"Monitor","mesh":0},{"translation":[0,-0.234375,0.15625],"name":"Monitor","children":[0]},{"translation":[0,-0.4375,0.4375],"name":"PC","mesh":1},{"translation":[1.0625,0.625,-0.4375],"name":"PC","children":[2]},{"name":"Keyboard","mesh":2},{"translation":[-0.765625,0.015625,0.02812500000000001],"name":"Mouse","mesh":3},{"translation":[0.1875,-0.234375,-0.2625],"name":"Accessories","children":[4,5]},{"children":[1,3,6]}],"bufferViews":[{"buffer":0,"byteOffset":0,"byteLength":34752,"target":34962,"byteStride":12},{"buffer":0,"byteOffset":34752,"byteLength":34752,"target":34962,"byteStride":12},{"buffer":0,"byteOffset":69504,"byteLength":23168,"target":34962,"byteStride":8},{"buffer":0,"byteOffset":92672,"byteLength":8688,"target":34963},{"buffer":0,"byteOffset":101360,"byteLength":41952,"target":34962,"byteStride":12},{"buffer":0,"byteOffset":143312,"byteLength":41952,"target":34962,"byteStride":12},{"buffer":0,"byteOffset":185264,"byteLength":27968,"target":34962,"byteStride":8},{"buffer":0,"byteOffset":213232,"byteLength":10344,"target":34963},{"buffer":0,"byteOffset":223576,"byteLength":12960,"target":34962,"byteStride":12},{"buffer":0,"byteOffset":236536,"byteLength":12960,"target":34962,"byteStride":12},{"buffer":0,"byteOffset":249496,"byteLength":8640,"target":34962,"byteStride":8},{"buffer":0,"byteOffset":258136,"byteLength":3240,"target":34963},{"buffer":0,"byteOffset":261376,"byteLength":480,"target":34962,"byteStride":12},{"buffer":0,"byteOffset":261856,"byteLength":480,"target":34962,"byteStride":12},{"buffer":0,"byteOffset":262336,"byteLength":320,"target":34962,"byteStride":8},{"buffer":0,"byteOffset":262656,"byteLength":120,"target":34963}],"buffers":[{"byteLength":262776,"uri":"data:application/octet-stream;base64,"}],"accessors":[{"bufferView":0,"componentType":5126,"count":2896,"max":[0.5375000238418579,0.5874999761581421,0.15772156417369843],"min":[-0.5375000238418579,-0.2548407316207886,-0.06267546117305756],"type":"VEC3"},{"bufferView":1,"componentType":5126,"count":2896,"max":[1,1,1],"min":[-1,-1,-1],"type":"VEC3"},{"bufferView":2,"componentType":5126,"count":2896,"max":[0.5045953392982483,0.48069846630096436],"min":[0,0],"type":"VEC2"},{"bufferView":3,"componentType":5123,"count":4344,"max":[2895],"min":[0],"type":"SCALAR"},{"bufferView":4,"componentType":5126,"count":3496,"max":[0.1875,0.699999988079071,0.5],"min":[-0.1875,-0.1875,-0.5],"type":"VEC3"},{"bufferView":5,"componentType":5126,"count":3496,"max":[1,1,1],"min":[-1,-1,-1],"type":"VEC3"},{"bufferView":6,"componentType":5126,"count":3496,"max":[0.5218750238418579,0.518750011920929],"min":[0,0],"type":"VEC2"},{"bufferView":7,"componentType":5123,"count":5172,"max":[3495],"min":[0],"type":"SCALAR"},{"bufferView":8,"componentType":5126,"count":1080,"max":[0.5,0.27812498807907104,0.15000000596046448],"min":[-0.5,0.23125000298023224,-0.15000000596046448],"type":"VEC3"},{"bufferView":9,"componentType":5126,"count":1080,"max":[1,1,1],"min":[-1,-1,-1],"type":"VEC3"},{"bufferView":10,"componentType":5126,"count":1080,"max":[0.5234375,0.5234375],"min":[0,0],"type":"VEC2"},{"bufferView":11,"componentType":5123,"count":1620,"max":[1079],"min":[0],"type":"SCALAR"},{"bufferView":12,"componentType":5126,"count":40,"max":[0.0625,0.28437501192092896,0.08749999850988388],"min":[-0.0625,0.21875,-0.08749999850988388],"type":"VEC3"},{"bufferView":13,"componentType":5126,"count":40,"max":[1,0.9649437069892883,1],"min":[-1,-1,-1],"type":"VEC3"},{"bufferView":14,"componentType":5126,"count":40,"max":[0.421875,0.4144531488418579],"min":[0.1484375,0.0625],"type":"VEC2"},{"bufferView":15,"componentType":5123,"count":60,"max":[39],"min":[0],"type":"SCALAR"}],"materials":[{"pbrMetallicRoughness":{"metallicFactor":0,"roughnessFactor":1,"baseColorTexture":{"index":0}},"alphaMode":"MASK","alphaCutoff":0.05,"doubleSided":true}],"textures":[{"sampler":0,"source":0,"name":"texture"}],"samplers":[{"magFilter":9728,"minFilter":9728,"wrapS":33071,"wrapT":33071}],"images":[{"mimeType":"image/png","uri":"data:image/png;base64,"}],"meshes":[{"primitives":[{"mode":4,"attributes":{"POSITION":0,"NORMAL":1,"TEXCOORD_0":2},"indices":3,"material":0}]},{"primitives":[{"mode":4,"attributes":{"POSITION":4,"NORMAL":5,"TEXCOORD_0":6},"indices":7,"material":0}]},{"primitives":[{"mode":4,"attributes":{"POSITION":8,"NORMAL":9,"TEXCOORD_0":10},"indices":11,"material":0}]},{"primitives":[{"mode":4,"attributes":{"POSITION":12,"NORMAL":13,"TEXCOORD_0":14},"indices":15,"material":0}]}]}