{"asset":{"version":"2.0","generator":"Blockbench 4.11.2 glTF exporter"},"scenes":[{"nodes":[12],"name":"blockbench_export"}],"scene":0,"nodes":[{"rotation":[0,0,-0.7071067811865475,0.7071067811865476],"translation":[-2.6812500000000004,2.35625,0],"name":"Frame","mesh":0},{"rotation":[0,0,0.3826834323650898,0.9238795325112867],"translation":[-2.484375,2.078125,0],"name":"Profiles","mesh":1},{"rotation":[-0.18223552549214747,0,0,0.9832549075639546],"translation":[-1.375,2.125,-0.003124999999999996],"name":"Scanner","mesh":2},{"rotation":[-0.0015902847822732056,0.9832174682299354,0.1822285865217403,0.008580408854806768],"translation":[-1.375,2.125,-0.003124999999999996],"name":"Scanner","mesh":3},{"rotation":[-0.7071067811865475,0,0,0.7071067811865476],"translation":[-2.709375,2.396875,0.171875],"name":"Screw","mesh":4},{"translation":[1.38125,-0.1625,0],"name":"Frame","children":[0,1,2,3,4]},{"name":"Keypad2"},{"translation":[0.02499999999999991,-0.046875,-0.009374999999999994],"name":"Keypad","mesh":5},{"translation":[-1.375,1,-0.078125],"name":"Keypad","children":[6,7]},{"translation":[-1.2999999999999998,0,0],"name":"Right_door","mesh":6},{"rotation":[0,-1,0,6.123233995736766e-17],"name":"Left_door","mesh":7},{"translation":[0.65,-0.24375000000000002,0],"name":"Door","children":[9,10]},{"children":[5,8,11]}],"bufferViews":[{"buffer":0,"byteOffset":0,"byteLength":864,"target":34962,"byteStride":12},{"buffer":0,"byteOffset":864,"byteLength":864,"target":34962,"byteStride":12},{"buffer":0,"byteOffset":1728,"byteLength":576,"target":34962,"byteStride":8},{"buffer":0,"byteOffset":2304,"byteLength":216,"target":34963},{"buffer":0,"byteOffset":2520,"byteLength":1152,"target":34962,"byteStride":12},{"buffer":0,"byteOffset":3672,"byteLength":1152,"target":34962,"byteStride":12},{"buffer":0,"byteOffset":4824,"byteLength":768,"target":34962,"byteStride":8},{"buffer":0,"byteOffset":5592,"byteLength":288,"target":34963},{"buffer":0,"byteOffset":5880,"byteLength":1728,"target":34962,"byteStride":12},{"buffer":0,"byteOffset":7608,"byteLength":1728,"target":34962,"byteStride":12},{"buffer":0,"byteOffset":9336,"byteLength":1152,"target":34962,"byteStride":8},{"buffer":0,"byteOffset":10488,"byteLength":360,"target":34963},{"buffer":0,"byteOffset":10848,"byteLength":1728,"target":34962,"byteStride":12},{"buffer":0,"byteOffset":12576,"byteLength":1728,"target":34962,"byteStride":12},{"buffer":0,"byteOffset":14304,"byteLength":1152,"target":34962,"byteStride":8},{"buffer":0,"byteOffset":15456,"byteLength":360,"target":34963},{"buffer":0,"byteOffset":15816,"byteLength":5760,"target":34962,"byteStride":12},{"buffer":0,"byteOffset":21576,"byteLength":5760,"target":34962,"byteStride":12},{"buffer":0,"byteOffset":27336,"byteLength":3840,"target":34962,"byteStride":8},{"buffer":0,"byteOffset":31176,"byteLength":1152,"target":34963},{"buffer":0,"byteOffset":32328,"byteLength":1728,"target":34962,"byteStride":12},{"buffer":0,"byteOffset":34056,"byteLength":1728,"target":34962,"byteStride":12},{"buffer":0,"byteOffset":35784,"byteLength":1152,"target":34962,"byteStride":8},{"buffer":0,"byteOffset":36936,"byteLength":432,"target":34963},{"buffer":0,"byteOffset":37368,"byteLength":1536,"target":34962,"byteStride":12},{"buffer":0,"byteOffset":38904,"byteLength":1536,"target":34962,"byteStride":12},{"buffer":0,"byteOffset":40440,"byteLength":1024,"target":34962,"byteStride":8},{"buffer":0,"byteOffset":41464,"byteLength":384,"target":34963},{"buffer":0,"byteOffset":41848,"byteLength":1536,"target":34962,"byteStride":12},{"buffer":0,"byteOffset":43384,"byteLength":1536,"target":34962,"byteStride":12},{"buffer":0,"byteOffset":44920,"byteLength":1024,"target":34962,"byteStride":8},{"buffer":0,"byteOffset":45944,"byteLength":384,"target":34963}],"buffers":[{"byteLength":46328,"uri":"data:application/octet-stream;base64,"}],"accessors":[{"bufferView":0,"componentType":5126,"count":72,"max":[2.1937499046325684,2.762500047683716,0.08124999701976776],"min":[-0.08124999701976776,-0.16249999403953552,-0.08124999701976776],"type":"VEC3"},{"bufferView":1,"componentType":5126,"count":72,"max":[1,1,1],"min":[-1,-1,-1],"type":"VEC3"},{"bufferView":2,"componentType":5126,"count":72,"max":[0.3359375,0.5703125],"min":[0,0],"type":"VEC2"},{"bufferView":3,"componentType":5123,"count":108,"max":[71],"min":[0],"type":"SCALAR"},{"bufferView":4,"componentType":5126,"count":96,"max":[1.9057111740112305,0.34375,0.09375],"min":[-1.6241358518600464,-3.181980609893799,-0.09375],"type":"VEC3"},{"bufferView":5,"componentType":5126,"count":96,"max":[1,1,1],"min":[-1,-1,-1],"type":"VEC3"},{"bufferView":6,"componentType":5126,"count":96,"max":[0.625,0.59375],"min":[0,0],"type":"VEC2"},{"bufferView":7,"componentType":5123,"count":144,"max":[95],"min":[0],"type":"SCALAR"},{"bufferView":8,"componentType":5126,"count":144,"max":[0.15625,0.296875,0.03125],"min":[-0.15625,0.203125,-0.04085053130984306],"type":"VEC3"},{"bufferView":9,"componentType":5126,"count":144,"max":[1,1,1],"min":[-1,-1,-1],"type":"VEC3"},{"bufferView":10,"componentType":5126,"count":144,"max":[0.625,0.5],"min":[0,0],"type":"VEC2"},{"bufferView":11,"componentType":5123,"count":180,"max":[143],"min":[0],"type":"SCALAR"},{"bufferView":12,"componentType":5126,"count":144,"max":[0.15625,0.296875,0.03125],"min":[-0.15625,0.203125,-0.041260361671447754],"type":"VEC3"},{"bufferView":13,"componentType":5126,"count":144,"max":[1,1,1],"min":[-1,-1,-1],"type":"VEC3"},{"bufferView":14,"componentType":5126,"count":144,"max":[0.625,0.5],"min":[0,0],"type":"VEC2"},{"bufferView":15,"componentType":5123,"count":180,"max":[143],"min":[0],"type":"SCALAR"},{"bufferView":16,"componentType":5126,"count":480,"max":[2.765625,0.265625,0.015625],"min":[-0.109375,0.234375,-0.09375],"type":"VEC3"},{"bufferView":17,"componentType":5126,"count":480,"max":[1,1,1],"min":[-1,-1,-1],"type":"VEC3"},{"bufferView":18,"componentType":5126,"count":480,"max":[0.09141406416893005,0.08984375],"min":[0.025390625,0.0234375],"type":"VEC2"},{"bufferView":19,"componentType":5123,"count":576,"max":[479],"min":[0],"type":"SCALAR"},{"bufferView":20,"componentType":5126,"count":144,"max":[0.03750000149011612,0.375,0.02500000037252903],"min":[-0.08749999850988388,0.21875,-0.015625],"type":"VEC3"},{"bufferView":21,"componentType":5126,"count":144,"max":[1,1,1],"min":[-1,-1,-1],"type":"VEC3"},{"bufferView":22,"componentType":5126,"count":144,"max":[0.71875,0.71875],"min":[0,0],"type":"VEC2"},{"bufferView":23,"componentType":5123,"count":216,"max":[143],"min":[0],"type":"SCALAR"},{"bufferView":24,"componentType":5126,"count":128,"max":[0.6499999761581421,2.356250047683716,0.04874999821186066],"min":[-0.6499999761581421,0.24375000596046448,-0.04874999821186066],"type":"VEC3"},{"bufferView":25,"componentType":5126,"count":128,"max":[1,1,1],"min":[-1,-1,-1],"type":"VEC3"},{"bufferView":26,"componentType":5126,"count":128,"max":[0.600781261920929,0.5375000238418579],"min":[0.0007812500116415322,0],"type":"VEC2"},{"bufferView":27,"componentType":5123,"count":192,"max":[127],"min":[0],"type":"SCALAR"},{"bufferView":28,"componentType":5126,"count":128,"max":[0.6499999761581421,2.356250047683716,0.04874999821186066],"min":[-0.6499999761581421,0.24375000596046448,-0.04874999821186066],"type":"VEC3"},{"bufferView":29,"componentType":5126,"count":128,"max":[1,1,1],"min":[-1,-1,-1],"type":"VEC3"},{"bufferView":30,"componentType":5126,"count":128,"max":[0.600781261920929,0.5375000238418579],"min":[0.0007812500116415322,0],"type":"VEC2"},{"bufferView":31,"componentType":5123,"count":192,"max":[127],"min":[0],"type":"SCALAR"}],"materials":[{"pbrMetallicRoughness":{"metallicFactor":0,"roughnessFactor":1,"baseColorTexture":{"index":0}},"alphaMode":"MASK","alphaCutoff":0.05,"doubleSided":true},{"pbrMetallicRoughness":{"metallicFactor":0,"roughnessFactor":1,"baseColorTexture":{"index":1}},"alphaMode":"MASK","alphaCutoff":0.05,"doubleSided":true},{"pbrMetallicRoughness":{"metallicFactor":0,"roughnessFactor":1,"baseColorTexture":{"index":2}},"alphaMode":"MASK","alphaCutoff":0.05,"doubleSided":true},{"pbrMetallicRoughness":{"metallicFactor":0,"roughnessFactor":1,"baseColorTexture":{"index":3}},"alphaMode":"MASK","alphaCutoff":0.05,"doubleSided":true}],"textures":[{"sampler":0,"source":0,"name":"texture"},{"sampler":1,"source":1,"name":"door_frame_extras_2"},{"sampler":2,"source":2,"name":"door_frame_extras"},{"sampler":3,"source":3,"name":"Sliding_door"}],"samplers":[{"magFilter":9728,"minFilter":9728,"wrapS":33071,"wrapT":33071},{"magFilter":9728,"minFilter":9728,"wrapS":33071,"wrapT":33071},{"magFilter":9728,"minFilter":9728,"wrapS":33071,"wrapT":33071},{"magFilter":9728,"minFilter":9728,"wrapS":33071,"wrapT":33071}],"images":[{"mimeType":"image/png","uri":"data:image/png;base64,"},{"mimeType":"image/png","uri":"data:image/png;base64,"},{"mimeType":"image/png","uri":"data:image/png;base64,"},{"mimeType":"image/png","uri":"data:image/png;base64,"}],"meshes":[{"primitives":[{"mode":4,"attributes":{"POSITION":0,"NORMAL":1,"TEXCOORD_0":2},"indices":3,"material":0}]},{"primitives":[{"mode":4,"attributes":{"POSITION":4,"NORMAL":5,"TEXCOORD_0":6},"indices":7,"material":1}]},{"primitives":[{"mode":4,"attributes":{"POSITION":8,"NORMAL":9,"TEXCOORD_0":10},"indices":11,"material":2}]},{"primitives":[{"mode":4,"attributes":{"POSITION":12,"NORMAL":13,"TEXCOORD_0":14},"indices":15,"material":2}]},{"primitives":[{"mode":4,"attributes":{"POSITION":16,"NORMAL":17,"TEXCOORD_0":18},"indices":19,"material":3}]},{"primitives":[{"mode":4,"attributes":{"POSITION":20,"NORMAL":21,"TEXCOORD_0":22},"indices":23,"material":1}]},{"primitives":[{"mode":4,"attributes":{"POSITION":24,"NORMAL":25,"TEXCOORD_0":26},"indices":27,"material":3}]},{"primitives":[{"mode":4,"attributes":{"POSITION":28,"NORMAL":29,"TEXCOORD_0":30},"indices":31,"material":3}]}]}