{"asset":{"version":"2.0","generator":"Blockbench 4.11.2 glTF exporter"},"scenes":[{"nodes":[1],"name":"blockbench_export"}],"scene":0,"nodes":[{"translation":[0.0625,0.21874999999999997,0.246875],"name":"Item_stand","mesh":0},{"children":[0]}],"bufferViews":[{"buffer":0,"byteOffset":0,"byteLength":9504,"target":34962,"byteStride":12},{"buffer":0,"byteOffset":9504,"byteLength":9504,"target":34962,"byteStride":12},{"buffer":0,"byteOffset":19008,"byteLength":6336,"target":34962,"byteStride":8},{"buffer":0,"byteOffset":25344,"byteLength":1728,"target":34963},{"buffer":0,"byteOffset":27072,"byteLength":144,"target":34963},{"buffer":0,"byteOffset":27216,"byteLength":504,"target":34963}],"buffers":[{"byteLength":27720,"uri":"data:application/octet-stream;base64,"}],"accessors":[{"bufferView":0,"componentType":5126,"count":792,"max":[0.0625,0.26875001192092896,0.19062499701976776],"min":[-0.0625,-0.21875,-0.684374988079071],"type":"VEC3"},{"bufferView":1,"componentType":5126,"count":792,"max":[1,1,1],"min":[-1,-1,-1],"type":"VEC3"},{"bufferView":2,"componentType":5126,"count":792,"max":[0.8009750247001648,0.768750011920929],"min":[0,0],"type":"VEC2"},{"bufferView":3,"componentType":5123,"count":864,"max":[575],"min":[0],"type":"SCALAR"},{"bufferView":4,"componentType":5123,"count":72,"max":[623],"min":[576],"type":"SCALAR"},{"bufferView":5,"componentType":5123,"count":252,"max":[791],"min":[624],"type":"SCALAR"}],"materials":[{"pbrMetallicRoughness":{"metallicFactor":0,"roughnessFactor":1,"baseColorTexture":{"index":0}},"alphaMode":"MASK","alphaCutoff":0.05,"doubleSided":true},{"pbrMetallicRoughness":{"metallicFactor":0,"roughnessFactor":1,"baseColorTexture":{"index":1}},"alphaMode":"MASK","alphaCutoff":0.05,"doubleSided":true}],"textures":[{"sampler":0,"source":0,"name":"texture"},{"sampler":1,"source":1,"name":"texture"}],"samplers":[{"magFilter":9728,"minFilter":9728,"wrapS":33071,"wrapT":33071},{"magFilter":9728,"minFilter":9728,"wrapS":33071,"wrapT":33071}],"images":[{"mimeType":"image/png","uri":"data:image/png;base64,"},{"mimeType":"image/png","uri":"data:image/png;base64,"}],"meshes":[{"primitives":[{"mode":4,"attributes":{"POSITION":0,"NORMAL":1,"TEXCOORD_0":2},"indices":3,"material":0},{"mode":4,"attributes":{"POSITION":0,"NORMAL":1,"TEXCOORD_0":2},"indices":4,"material":1},{"mode":4,"attributes":{"POSITION":0,"NORMAL":1,"TEXCOORD_0":2},"indices":5,"material":0}]}]}