{"asset":{"version":"2.0","generator":"Blockbench 4.11.2 glTF exporter"},"scenes":[{"nodes":[2],"name":"blockbench_export"}],"scene":0,"nodes":[{"rotation":[-3.570060913560269e-15,0,0,1],"translation":[0,0.9375,-0.012500000000000011],"name":"Fan","mesh":0},{"rotation":[-6.245004513516506e-16,0,0,1],"translation":[0,0.5625,0],"name":"Vent","mesh":1},{"children":[0,1]}],"bufferViews":[{"buffer":0,"byteOffset":0,"byteLength":864,"target":34962,"byteStride":12},{"buffer":0,"byteOffset":864,"byteLength":864,"target":34962,"byteStride":12},{"buffer":0,"byteOffset":1728,"byteLength":576,"target":34962,"byteStride":8},{"buffer":0,"byteOffset":2304,"byteLength":144,"target":34963},{"buffer":0,"byteOffset":2448,"byteLength":9408,"target":34962,"byteStride":12},{"buffer":0,"byteOffset":11856,"byteLength":9408,"target":34962,"byteStride":12},{"buffer":0,"byteOffset":21264,"byteLength":6272,"target":34962,"byteStride":8},{"buffer":0,"byteOffset":27536,"byteLength":2280,"target":34963}],"buffers":[{"byteLength":29816,"uri":"data:application/octet-stream;base64,"}],"accessors":[{"bufferView":0,"componentType":5126,"count":72,"max":[0.3375000059604645,0.0625,0.3375000059604645],"min":[-0.3375000059604645,-0.0625,-0.3375000059604645],"type":"VEC3"},{"bufferView":1,"componentType":5126,"count":72,"max":[1,0.9415606260299683,0.8660253882408142],"min":[-1,-0.9415606260299683,-0.9659258127212524],"type":"VEC3"},{"bufferView":2,"componentType":5126,"count":72,"max":[0.875,0.8264111876487732],"min":[0.007330377586185932,0],"type":"VEC2"},{"bufferView":3,"componentType":5123,"count":72,"max":[71],"min":[0],"type":"SCALAR"},{"bufferView":4,"componentType":5126,"count":784,"max":[0.5,0.4375,0.5],"min":[-0.5,-0.5625,-0.5],"type":"VEC3"},{"bufferView":5,"componentType":5126,"count":784,"max":[1,1,1],"min":[-1,-1,-1],"type":"VEC3"},{"bufferView":6,"componentType":5126,"count":784,"max":[0.8267406225204468,0.8031250238418579],"min":[0,0],"type":"VEC2"},{"bufferView":7,"componentType":5123,"count":1140,"max":[783],"min":[0],"type":"SCALAR"}],"materials":[{"pbrMetallicRoughness":{"metallicFactor":0,"roughnessFactor":1,"baseColorTexture":{"index":0}},"alphaMode":"MASK","alphaCutoff":0.05,"doubleSided":true}],"textures":[{"sampler":0,"source":0,"name":"texture"}],"samplers":[{"magFilter":9728,"minFilter":9728,"wrapS":33071,"wrapT":33071}],"images":[{"mimeType":"image/png","uri":"data:image/png;base64,"}],"meshes":[{"primitives":[{"mode":4,"attributes":{"POSITION":0,"NORMAL":1,"TEXCOORD_0":2},"indices":3,"material":0}]},{"primitives":[{"mode":4,"attributes":{"POSITION":4,"NORMAL":5,"TEXCOORD_0":6},"indices":7,"material":0}]}]}