{"asset":{"version":"2.0","generator":"Blockbench 4.11.2 glTF exporter"},"scenes":[{"nodes":[5],"name":"blockbench_export"}],"scene":0,"nodes":[{"translation":[0,0.25,0],"name":"Main_box","mesh":0},{"rotation":[3.4907480242018633e-34,-8.916478666520786e-16,-4.809541453289016e-19,1],"translation":[-0.06874999999999991,0.125,-0.23124999999999998],"name":"Electrical_lid","mesh":1},{"translation":[-0.0625,0.5624999999999998,0],"name":"Sign","mesh":2},{"rotation":[0,0,0.20791169081775943,0.9781476007338056],"translation":[0.05,0.3125,0],"name":"Lever","mesh":3},{"rotation":[0,0,0.7071067811865488,0.7071067811865462],"translation":[0.05,0.31874999999999976,0],"name":"Lever_base","mesh":4},{"children":[0,1,2,3,4]}],"bufferViews":[{"buffer":0,"byteOffset":0,"byteLength":7680,"target":34962,"byteStride":12},{"buffer":0,"byteOffset":7680,"byteLength":7680,"target":34962,"byteStride":12},{"buffer":0,"byteOffset":15360,"byteLength":5120,"target":34962,"byteStride":8},{"buffer":0,"byteOffset":20480,"byteLength":1920,"target":34963},{"buffer":0,"byteOffset":22400,"byteLength":288,"target":34962,"byteStride":12},{"buffer":0,"byteOffset":22688,"byteLength":288,"target":34962,"byteStride":12},{"buffer":0,"byteOffset":22976,"byteLength":192,"target":34962,"byteStride":8},{"buffer":0,"byteOffset":23168,"byteLength":72,"target":34963},{"buffer":0,"byteOffset":23240,"byteLength":288,"target":34962,"byteStride":12},{"buffer":0,"byteOffset":23528,"byteLength":288,"target":34962,"byteStride":12},{"buffer":0,"byteOffset":23816,"byteLength":192,"target":34962,"byteStride":8},{"buffer":0,"byteOffset":24008,"byteLength":72,"target":34963},{"buffer":0,"byteOffset":24080,"byteLength":288,"target":34962,"byteStride":12},{"buffer":0,"byteOffset":24368,"byteLength":288,"target":34962,"byteStride":12},{"buffer":0,"byteOffset":24656,"byteLength":192,"target":34962,"byteStride":8},{"buffer":0,"byteOffset":24848,"byteLength":72,"target":34963},{"buffer":0,"byteOffset":24920,"byteLength":288,"target":34962,"byteStride":12},{"buffer":0,"byteOffset":25208,"byteLength":288,"target":34962,"byteStride":12},{"buffer":0,"byteOffset":25496,"byteLength":192,"target":34962,"byteStride":8},{"buffer":0,"byteOffset":25688,"byteLength":72,"target":34963}],"buffers":[{"byteLength":25760,"uri":"data:application/octet-stream;base64,"}],"accessors":[{"bufferView":0,"componentType":5126,"count":640,"max":[0.0625,0.75,0.3125],"min":[-0.0625,-0.25,-0.3125],"type":"VEC3"},{"bufferView":1,"componentType":5126,"count":640,"max":[1,1,1],"min":[-1,-1,-1],"type":"VEC3"},{"bufferView":2,"componentType":5126,"count":640,"max":[0.45234376192092896,0.5625],"min":[0,0],"type":"VEC2"},{"bufferView":3,"componentType":5123,"count":960,"max":[639],"min":[0],"type":"SCALAR"},{"bufferView":4,"componentType":5126,"count":24,"max":[0.012500000186264515,0.5,0.46875],"min":[-0.012500000186264515,0,-0.0062500000931322575],"type":"VEC3"},{"bufferView":5,"componentType":5126,"count":24,"max":[1,1,1],"min":[-1,-1,-1],"type":"VEC3"},{"bufferView":6,"componentType":5126,"count":24,"max":[0.484375,0.53125],"min":[0,0],"type":"VEC2"},{"bufferView":7,"componentType":5123,"count":36,"max":[23],"min":[0],"type":"SCALAR"},{"bufferView":8,"componentType":5126,"count":24,"max":[0.01875000074505806,0.4124999940395355,0.19374999403953552],"min":[-0.01875000074505806,0.08749999850988388,-0.19374999403953552],"type":"VEC3"},{"bufferView":9,"componentType":5126,"count":24,"max":[1,1,1],"min":[-1,-1,-1],"type":"VEC3"},{"bufferView":10,"componentType":5126,"count":24,"max":[0.484375,0.484375],"min":[0,0.125],"type":"VEC2"},{"bufferView":11,"componentType":5123,"count":36,"max":[23],"min":[0],"type":"SCALAR"},{"bufferView":12,"componentType":5126,"count":24,"max":[0.012500000186264515,0.125,0.012500000186264515],"min":[-0.012500000186264515,0,-0.012500000186264515],"type":"VEC3"},{"bufferView":13,"componentType":5126,"count":24,"max":[1,1,1],"min":[-1,-1,-1],"type":"VEC3"},{"bufferView":14,"componentType":5126,"count":24,"max":[0.515625,0.53125],"min":[0,0.09375],"type":"VEC2"},{"bufferView":15,"componentType":5123,"count":36,"max":[23],"min":[0],"type":"SCALAR"},{"bufferView":16,"componentType":5126,"count":24,"max":[0.03750000149011612,0.012500000186264515,0.03750000149011612],"min":[-0.03750000149011612,-0.012500000186264515,-0.03750000149011612],"type":"VEC3"},{"bufferView":17,"componentType":5126,"count":24,"max":[1,1,1],"min":[-1,-1,-1],"type":"VEC3"},{"bufferView":18,"componentType":5126,"count":24,"max":[0.515625,0.515625],"min":[0.03125,0],"type":"VEC2"},{"bufferView":19,"componentType":5123,"count":36,"max":[23],"min":[0],"type":"SCALAR"}],"materials":[{"pbrMetallicRoughness":{"metallicFactor":0,"roughnessFactor":1,"baseColorTexture":{"index":0}},"alphaMode":"MASK","alphaCutoff":0.05,"doubleSided":true}],"textures":[{"sampler":0,"source":0,"name":"texture"}],"samplers":[{"magFilter":9728,"minFilter":9728,"wrapS":33071,"wrapT":33071}],"images":[{"mimeType":"image/png","uri":"data:image/png;base64,"}],"meshes":[{"primitives":[{"mode":4,"attributes":{"POSITION":0,"NORMAL":1,"TEXCOORD_0":2},"indices":3,"material":0}]},{"primitives":[{"mode":4,"attributes":{"POSITION":4,"NORMAL":5,"TEXCOORD_0":6},"indices":7,"material":0}]},{"primitives":[{"mode":4,"attributes":{"POSITION":8,"NORMAL":9,"TEXCOORD_0":10},"indices":11,"material":0}]},{"primitives":[{"mode":4,"attributes":{"POSITION":12,"NORMAL":13,"TEXCOORD_0":14},"indices":15,"material":0}]},{"primitives":[{"mode":4,"attributes":{"POSITION":16,"NORMAL":17,"TEXCOORD_0":18},"indices":19,"material":0}]}]}