{"asset":{"version":"2.0","generator":"Blockbench 4.11.2 glTF exporter"},"scenes":[{"nodes":[2],"name":"blockbench_export"}],"scene":0,"nodes":[{"translation":[0,-0.7062500000000002,0.03125],"name":"cuboid","mesh":0},{"translation":[0,0.7124999999999999,0.03125000000000001],"name":"Window","mesh":1},{"children":[0,1]}],"bufferViews":[{"buffer":0,"byteOffset":0,"byteLength":288,"target":34962,"byteStride":12},{"buffer":0,"byteOffset":288,"byteLength":288,"target":34962,"byteStride":12},{"buffer":0,"byteOffset":576,"byteLength":192,"target":34962,"byteStride":8},{"buffer":0,"byteOffset":768,"byteLength":72,"target":34963},{"buffer":0,"byteOffset":840,"byteLength":8208,"target":34962,"byteStride":12},{"buffer":0,"byteOffset":9048,"byteLength":8208,"target":34962,"byteStride":12},{"buffer":0,"byteOffset":17256,"byteLength":5472,"target":34962,"byteStride":8},{"buffer":0,"byteOffset":22728,"byteLength":288,"target":34963},{"buffer":0,"byteOffset":23016,"byteLength":144,"target":34963},{"buffer":0,"byteOffset":23160,"byteLength":1620,"target":34963}],"buffers":[{"byteLength":24780,"uri":"data:application/octet-stream;base64,"}],"accessors":[{"bufferView":0,"componentType":5126,"count":24,"max":[1.5,1.625,0.06875000149011612],"min":[-1.5,0.7083333134651184,-0.06875000149011612],"type":"VEC3"},{"bufferView":1,"componentType":5126,"count":24,"max":[1,1,1],"min":[-1,-1,-1],"type":"VEC3"},{"bufferView":2,"componentType":5126,"count":24,"max":[0.75,0.828125],"min":[0,0],"type":"VEC2"},{"bufferView":3,"componentType":5123,"count":36,"max":[23],"min":[0],"type":"SCALAR"},{"bufferView":4,"componentType":5126,"count":684,"max":[1.5031249523162842,2.325540065765381,0.1772136241197586],"min":[-1.5031249523162842,0.20000000298023224,-0.18747764825820923],"type":"VEC3"},{"bufferView":5,"componentType":5126,"count":684,"max":[1,1,1],"min":[-1,-1,-1],"type":"VEC3"},{"bufferView":6,"componentType":5126,"count":684,"max":[0.890625,0.7286151647567749],"min":[0,0],"type":"VEC2"},{"bufferView":7,"componentType":5123,"count":144,"max":[95],"min":[0],"type":"SCALAR"},{"bufferView":8,"componentType":5123,"count":72,"max":[143],"min":[96],"type":"SCALAR"},{"bufferView":9,"componentType":5123,"count":810,"max":[683],"min":[144],"type":"SCALAR"}],"materials":[{"pbrMetallicRoughness":{"metallicFactor":0,"roughnessFactor":1,"baseColorTexture":{"index":0}},"alphaMode":"MASK","alphaCutoff":0.05,"doubleSided":true},{"pbrMetallicRoughness":{"metallicFactor":0,"roughnessFactor":1,"baseColorTexture":{"index":1}},"alphaMode":"MASK","alphaCutoff":0.05,"doubleSided":true},{"pbrMetallicRoughness":{"metallicFactor":0,"roughnessFactor":1,"baseColorTexture":{"index":2}},"alphaMode":"MASK","alphaCutoff":0.05,"doubleSided":true},{"pbrMetallicRoughness":{"metallicFactor":0,"roughnessFactor":1,"baseColorTexture":{"index":3}},"alphaMode":"MASK","alphaCutoff":0.05,"doubleSided":true}],"textures":[{"sampler":0,"source":0,"name":"texture"},{"sampler":1,"source":1,"name":"texture"},{"sampler":2,"source":2,"name":"texture"},{"sampler":3,"source":3,"name":"texture"}],"samplers":[{"magFilter":9728,"minFilter":9728,"wrapS":33071,"wrapT":33071},{"magFilter":9728,"minFilter":9728,"wrapS":33071,"wrapT":33071},{"magFilter":9728,"minFilter":9728,"wrapS":33071,"wrapT":33071},{"magFilter":9728,"minFilter":9728,"wrapS":33071,"wrapT":33071}],"images":[{"mimeType":"image/png","uri":"data:image/png;base64,"},{"mimeType":"image/png","uri":"data:image/png;base64,"},{"mimeType":"image/png","uri":"data:image/png;base64,"},{"mimeType":"image/png","uri":"data:image/png;base64,"}],"meshes":[{"primitives":[{"mode":4,"attributes":{"POSITION":0,"NORMAL":1,"TEXCOORD_0":2},"indices":3,"material":0}]},{"primitives":[{"mode":4,"attributes":{"POSITION":4,"NORMAL":5,"TEXCOORD_0":6},"indices":7,"material":1},{"mode":4,"attributes":{"POSITION":4,"NORMAL":5,"TEXCOORD_0":6},"indices":8,"material":2},{"mode":4,"attributes":{"POSITION":4,"NORMAL":5,"TEXCOORD_0":6},"indices":9,"material":3}]}]}